{"title":"Big Booty White Girls 3","uid":6915885,"size":1400058329,"categoryP":"porn","categoryS":"movies","magnet":"?xt=urn:btih:62c669f99875d1ae9c89e0afd24452ff3b33bed5&amp;dn=Big+Booty+White+Girls+3&amp;tr=udp%3A%2F%2Ftracker.openbittorrent.com%3A80&amp;tr=udp%3A%2F%2Fopen.demonii.com%3A1337&amp;tr=udp%3A%2F%2Ftracker.coppersurfer.tk%3A6969&amp;tr=udp%3A%2F%2Fexodus.desync.com%3A6969","seeders":1,"leechers":0,"uploader":"tigris1968","files":7,"time":1325026285,"description":"General\nComplete name                    : C:\\\\\\\\\\\\\\\\Downloads\\\\\\\\\\\\\\\\Big Booty White Girls 3\\\\\\\\\\\\\\\\Big Booty White Girls3.avi\nFormat                           : AVI\nFormat/Info                      : Audio Video Interleave\nFormat profile                   : OpenDML\nFile size                        : 1.30 GiB\nDuration                         : 2h 19mn\nOverall bit rate                 : 1 341 Kbps\nWriting application              : MEncoder SVN-r30881(20100311-gcc4.3.3)\nWriting library                  : MPlayer\n\nVideo\nID                               : 0\nFormat                           : MPEG-4 Visual\nFormat profile                   : Advanced Simple@L5\nFormat settings, BVOP            : 2\nFormat settings, QPel            : No\nFormat settings, GMC             : No warppoints\nFormat settings, Matrix          : Default (H.263)\nCodec ID                         : XVID\nCodec ID/Hint                    : XviD\nDuration                         : 2h 19mn\nBit rate                         : 46.7 Kbps\nWidth                            : 720 pixels\nHeight                           : 480 pixels\nDisplay aspect ratio             : 3:2\nFrame rate                       : 25.000 fps\nStandard                         : NTSC\nColor space                      : YUV\nChroma subsampling               : 4:2:0\nBit depth                        : 8 bits\nScan type                        : Progressive\nCompression mode                 : Lossy\nBits/(Pixel*Frame)               : 0.005\nStream size                      : 46.5 MiB (3%)\nWriting library                  : XviD 1.2.1 (UTC 2008-12-04)\n\nAudio\nID                               : 1\nFormat                           : MPEG Audio\nCodec ID                         : 55\nCodec ID/Hint                    : MP3\nDuration                         : 2h 19mn\nBit rate                         : 128 Kbps\nChannel(s)                       : 2 channels\nSampling rate                    : 44.1 KHz\nCompression mode                 : Lossy\nStream size                      : 127 MiB (10%)\nAlignment                        : Aligned on interleaves\n\n\n\n","torrent":{"xt":"urn:btih:62c669f99875d1ae9c89e0afd24452ff3b33bed5","amp;dn":"Big+Booty+White+Girls+3","amp;tr":["udp%3A%2F%2Ftracker.openbittorrent.com%3A80","udp%3A%2F%2Fopen.demonii.com%3A1337","udp%3A%2F%2Ftracker.coppersurfer.tk%3A6969","udp%3A%2F%2Fexodus.desync.com%3A6969"],"infoHash":"62c669f99875d1ae9c89e0afd24452ff3b33bed5","infoHashBuffer":{"type":"Buffer","data":[98,198,105,249,152,117,209,174,156,137,224,175,210,68,82,255,59,51,190,213]},"announce":[],"urlList":[]}}